# xmcd
#
# Track frame offsets:
#	182
#	17435
#	29847
#	41902
#	50712
#	70235
#	88630
#	99225
#	116317
#	127140
#	143472
#
# Disc length: 2177
#
# Revision: 5
# Processed by: cddbd v1.5.1PL0 Copyright (c) Steve Scherf et al.
# Submitted via: CDex 1.51
# Normalized: r4:DSETVAR1,TDELIM( - )
#
DISCID=94087f0b
DTITLE=Various Artist - Blues Anthology (Volume 02 - Disc 01)
DYEAR=1994
DGENRE=Blues
TTITLE0=Albert Collins - Deep Freeze
TTITLE1=Buddy Guy - You Sure Can't Do
TTITLE2=Johnny "Guitar" Watson - One Room Country Shack
TTITLE3=Earl Hooker - The Foxtrot
TTITLE4=Byther Smith - I Don't Like To Travel
TTITLE5=Roy Gaines &The Crusaders - Hell Of A Night
TTITLE6=Paul Delay Band - Harpoon Man
TTITLE7=Billie Boy Arnold With Tony McPhee - Catfish
TTITLE8=Peter Lamb and The Blues Burglars - Spaced Out
TTITLE9=Greg ''Fingers'' Taylor With Anson Funderburgh and The Rockets - Dixie Diner
TTITLE10=The Chicago Blues Summit With Sunnyland Slim - Can't Stop
EXTD=YEAR: 1994
EXTT0=
EXTT1=
EXTT2=
EXTT3=
EXTT4=
EXTT5=
EXTT6=
EXTT7=
EXTT8=
EXTT9=
EXTT10=
PLAYORDER=
